<svg xmlns="http://www.w3.org/2000/svg" version="1.1" xmlns:xlink="http://www.w3.org/1999/xlink" xmlns:svgjs="http://svgjs.dev/svgjs" width="1440" height="560" preserveAspectRatio="none" viewBox="0 0 1560 560">
    <g mask="url(&quot;#SvgjsMask1070&quot;)" fill="none">
        <rect width="1560" height="560" x="0" y="0" fill="rgba(255, 255, 255, 1)"></rect>
        <path d="M0,405.574C83.481,413.378,169.926,418.432,245.277,381.659C325.193,342.658,394.987,278.093,429.313,196.06C463.199,115.079,450.877,23.528,430.905,-61.955C412.182,-142.091,377.19,-218.232,318.937,-276.36C263.087,-332.09,185.655,-352.934,111.714,-380.461C31.984,-410.143,-48.022,-465.422,-130.247,-443.581C-212.725,-421.673,-253.112,-332.231,-309.847,-268.484C-367.446,-203.767,-460.968,-153.445,-465.473,-66.925C-470.004,20.094,-377.193,77.162,-331.716,151.49C-292.819,215.064,-276.644,293.081,-217.477,338.401C-155.999,385.491,-77.104,398.366,0,405.574" fill="#4e88c6" transform="scale(1.45, 1.45) translate(0, -100)" />


        <!-- <path d="M1440 1182.8690000000001C1554.946 1195.204 1651.295 1102.6 1747.827 1038.989 1843.292 976.0799999999999 1938.855 912.627 1998.3 814.967 2062.523 709.458 2119.121 587.054 2096.874 465.556 2074.831 345.16999999999996 1975.045 256.374 1881.556 177.39 1798.409 107.144 1692.958 82.24799999999999 1592.781 39.676000000000045 1477.466-9.32899999999995 1365.9569999999999-135.67499999999995 1248.684-91.56100000000004 1129.137-46.591999999999985 1136.932 130.029 1067.531 237.25400000000002 1010.822 324.87 912.758 380.553 879.155 479.363 841.747 589.363 810.216 720.563 869.11 820.717 927.887 920.672 1073.976 915.0699999999999 1171.892 977.185 1268.974 1038.77 1325.688 1170.6019999999999 1440 1182.8690000000001" fill="#ffffff"></path> -->
    </g>
    <defs>
        <mask id="SvgjsMask1070">
            <rect width="1560" height="560" fill="#ffffff"></rect>
        </mask>
    </defs>
</svg>